<svg xmlns="http://www.w3.org/2000/svg" viewBox="0 0 980 980" fill="none" shape-rendering="auto"><metadata xmlns:rdf="http://www.w3.org/1999/02/22-rdf-syntax-ns#" xmlns:xsi="http://www.w3.org/2001/XMLSchema-instance" xmlns:dc="http://purl.org/dc/elements/1.1/" xmlns:dcterms="http://purl.org/dc/terms/"><rdf:RDF><rdf:Description><dc:title>Lorelei</dc:title><dc:creator>Lisa Wischofsky</dc:creator><dc:source xsi:type="dcterms:URI">https://www.figma.com/community/file/1198749693280469639</dc:source><dcterms:license xsi:type="dcterms:URI">https://creativecommons.org/publicdomain/zero/1.0/</dcterms:license><dc:rights>Remix of „Lorelei” (https://www.figma.com/community/file/1198749693280469639) by „Lisa Wischofsky”, licensed under „CC0 1.0” (https://creativecommons.org/publicdomain/zero/1.0/)</dc:rights></rdf:Description></rdf:RDF></metadata><mask id="viewboxMask"><rect width="980" height="980" rx="0" ry="0" x="0" y="0" fill="#fff" /></mask><g mask="url(#viewboxMask)"><g transform="translate(10 -60)"><path d="M580 141c9 1 19 4 27 9 7 5 15 9 21 15l19 15c6 6 10 14 13 21s5 14 4 22c-1 5-3 9-6 13-6 9-11 18-19 26 14 8 28 17 39 29 14 18 24 39 26 62 1 11 0 23-3 34-2 6-10 8-15 4-4-2-5-6-7-10s-5-7-6-11c-8-15-17-30-24-46l-7-14-24-1-12-1-8-5-11-8c-1 4-2 8-5 11-1 3-4 3-7 2l-13-3-45-5c-28-1-57 2-86 6l-24 4-9-2-17-5c1 7 3 15 3 23-1 5 0 10-3 14-7 14-15 27-21 42-7 17-13 35-17 53 0 2-1 4-3 5l-12 2c5 9 5 19 5 29-1 12-2 26-9 37 7 9 10 21 10 33 1 18 0 37-7 54-2 5-5 10-10 12-1 1-4 2-4-1-2-5-2-11-3-16l-16-6-28-10-10-4c-3-2-5-6-7-9-10-20-17-41-21-63a296 296 0 0 1 17-150c-14 1-29 1-41-5-9-5-16-13-21-21-4-8-7-16-9-25v-21c2-13 7-26 12-39l13-24c3-5 6-11 10-15 7-9 17-16 26-22 14-9 28-17 43-23 13-6 28-9 42-6 10 2 19 6 27 9 9 4 17 10 23 17 7 7 11 17 9 27l-7 22c11-2 23-3 35-2h19l51-1c-1-9 1-19 3-28 3-10 9-19 17-25 23-18 54-26 83-25Z" fill="#000000"/><path d="M495 231a231 231 0 0 1 219 204c1 10 2 21 0 30-1 4-1 7-4 8-3-10-3-19-4-29a220 220 0 0 0-239-205c-42 4-83 19-117 44l-17 13a221 221 0 0 0-78 164c0 23 7 43 15 64h17c3 1 4 4 2 6l-6 2c-15 1-31 7-42 17-8 9-14 19-16 31-3 15 0 32 8 45 9 15 24 27 40 33 14 5 29 7 43 5 4-1 8-2 11 0v3c-5 5-11 6-18 7-16 3-33-1-47-8a86 86 0 0 1-47-58c-4-18-1-37 9-53 8-12 20-21 34-26-7-14-10-28-12-43-2-18-2-35 0-53 1-13 4-25 8-38a227 227 0 0 1 99-122c41-28 92-43 142-41Z" fill="#000"/><path d="M535 244a220 220 0 0 1 171 200c1 10 1 19 4 29l-2 18v22c-3 4-4 9-4 14-2 8-2 15-2 23v65c0 21-3 42-11 61-4 13-10 24-18 35-10 12-21 22-34 31-11 9-24 17-37 24l-22 14-12 8 9-2c-3 11-3 24-4 36 0 8 1 16 7 22a235 235 0 0 0 81 45c6 7 11 16 13 25 1 9 0 18-4 27-6 10-14 18-23 24-13 10-28 17-43 22a417 417 0 0 1-217 11c-16-3-33-9-48-17-10-5-21-12-28-21-6-6-10-14-11-22-2-10 0-21 5-30 21-13 39-32 49-54 5-11 7-22 8-34 1-16 0-32-1-47-2-20-3-41-8-61 11 12 23 24 37 32 17 11 36 20 55 26 20 7 41 13 63 18l25 3c3 0 6 0 8-2 2-1 1-2 2-3l-17-2c-29-7-58-16-87-27-18-7-36-15-53-27-18-13-33-30-47-47l-11-16-1-1v-3c-3-2-7-1-11 0-14 2-29 0-43-5-16-6-31-18-40-33-8-13-11-30-8-45 2-12 8-22 16-31 11-10 27-16 42-17l6-2c2-2 1-5-2-6h-17c-8-21-15-41-15-64-1-14 2-27 5-41a221 221 0 0 1 73-123l17-13a230 230 0 0 1 185-39Z" fill="#ffffff"/><path d="M708 513c3 3 2 7 3 12v29c0 26 2 54 0 80-3 31-14 63-36 86-25 28-57 51-93 64l2 7v35c1 6 4 10 8 14l26 19 32 20 24 12c2 0 3 1 5 3l-19-5c-19-6-37-14-54-25-9-5-19-12-26-20-6-6-7-14-7-22 1-12 1-25 4-36l-9 2 12-8 22-14c13-7 26-15 37-24 13-9 24-19 34-31a178 178 0 0 0 29-96v-65c0-8 0-15 2-23 0-5 1-10 4-14ZM278 574c5 5 4 14 0 19l-3 7c1 3 5 5 7 6 6 3 12 7 19 9 0 4-3 5-7 5-6-1-13-3-18-6-7-3-13-8-13-16 0-6 5-9 6-14 2-4 0-7-1-11 4-1 7-2 10 1ZM328 667l11 16c14 17 29 34 47 47 17 12 35 20 53 27a714 714 0 0 0 104 29c-1 1 0 2-2 3-2 2-5 2-8 2l-25-3a478 478 0 0 1-118-44c-14-8-26-20-37-32 5 20 6 41 8 61 1 15 2 31 1 47-1 12-3 23-8 34-10 22-28 41-49 54l-14 8c2-4 6-6 9-9 13-11 24-25 34-39 6-10 12-21 14-33 4-19 3-39 3-58l-3-59 2-10c-10-11-19-26-22-41Z" fill="#000"/><path d="M684 485c6 2 11 7 13 13s1 13-2 18c-4 8-12 14-20 18-11 7-24 10-37 8-6 0-12-2-17-6-3-3-6-7-5-12v-3c-1-6 2-13 6-17 8-11 21-18 34-20 9-2 19-2 28 1ZM490 495c7 3 14 7 20 12l5 6c2 1 5 2 6 5 6 7 5 18-2 24-5 5-12 8-19 9-17 4-34 3-50 0-11-3-22-7-32-13-6-4-11-8-13-14-2-5-2-11 1-15 3-6 10-10 16-13 22-8 46-10 68-1Z" fill="#000000"/><path d="M669 490c5 0 11 1 15 4 3 2 5 5 6 9 0 6-4 11-8 15-7 8-18 12-29 15 3-8 3-17 0-25-2-5-4-9-9-12 8-4 16-6 25-6ZM459 499c13 0 27 4 39 9 6 3 11 6 15 11l-1 12c-1 5-6 7-10 8-18 6-36 4-54 0 3-5 5-10 6-16 0-8-3-17-10-22l15-2Z" fill="#fff"/><path d="M480 404c10 1 19 0 29 3 9 3 18 10 22 19 4 6 2 16-6 19-6 4-15 3-23 2-20-3-40-9-60-14l-20-4-10-2-4-4c2-4 6-6 10-7l20-7 18-3 24-2ZM656 410c8 1 15 4 22 7l9 4c2 2 3 6 1 8l-10 4c-17 4-33 11-51 12l-9 1c-3 0-6-2-8-4-3-2-4-5-4-9 0-7 2-15 8-20 4-3 11-4 16-5 8 0 17 0 26 2Z" fill="#000000"/><path d="M594 572a37 37 0 0 1 19 29c0 9-5 18-13 22l-17 7c-4 1-6 2-9 0-2-3-1-4 1-6 6-5 15-7 21-12 3-2 5-5 5-9 0-10-5-17-7-26v-5Z" fill="#000000"/><path fill-rule="evenodd" clip-rule="evenodd" d="M438 634c-4 6-11 11-19 13 0-4 3-7 6-9 4-3 8-5 13-4Zm14 12 32 5 24 6c15 4 29 8 44 10 10 1 20 0 29-1 12-2 23-4 36-1 6 2 11 6 15 11 3 5 4 10 2 16s-7 13-13 17c-7 5-15 6-24 7l-30 3-29-2-21-5-10-3-12-3-14-4-23-8-17-10c-7-5-10-15-8-23 2-9 10-15 19-15Zm4 9-9 1c-4 1-7 4-8 8 0 3 2 6 3 8v1l8 8 4 2c0-9 0-19 4-27l-2-1Zm9 2a703 703 0 0 1 40 10c-2 11-5 22-4 33l-22-6-14-5-4-2 4-17v-13Zm87 20c-14-1-27-5-41-8a46 46 0 0 1-1 18c-1 5-2 10-5 14l9 2 13 4 17 3 5 1c-3-10 0-21 2-30l1-4Zm54-5c4 0 8 0 12 2 3 1 6 5 8 8 1 2 2 5 1 8-3 5-7 10-12 13s-10 4-16 5l-2 1 7-18 2-19Zm-13 25 5-25-15 3-23 2c0 10-2 19-5 29l-2 5a135 135 0 0 0 35-1l4-1 1-12Z" fill="#000000"/><path fill-rule="evenodd" clip-rule="evenodd" d="M686 525h37a1149 1149 0 0 0 13 1c7 0 13 1 17 6 3 3 3 7 0 9-4 4-10 4-16 3 2 11 1 21-5 31-4 6-10 9-17 12-14 7-30 11-45 12-9 1-17 0-24-2-7-1-15-3-21-7a35 35 0 0 1-14-24l-2-4-11-2h-1a81 81 0 0 0-23 1h-4l-15 2-2 3-2 4-1 4v3c-2 10-8 18-16 23-9 6-21 9-32 11a183 183 0 0 1-83-10c-6-4-12-8-15-15-4-8-4-17-2-25h-4l-9-1c-3-1-4-3-3-6 2-4 8-6 12-8 6-2 12-4 19-4l55-7c24-3 48-3 72 1l9 4 7 3h3l9 2 23-1 4-1c3 1 5-2 8-4l5-4c7-3 15-4 22-5l6-1 32-3 14-1Zm38 18v8c0 4 0 10-2 14-1 4-4 6-7 8-13 6-27 10-42 12-11 2-22 0-33-3-9-2-16-9-18-18-2-4-2-9-2-13v-3a1133 1133 0 0 0 37-2l17-2a258 258 0 0 1 40-1h10Zm-197 8h-10c-13-1-27 0-40 1l-19 2a1435 1435 0 0 1-41 5l1 8 1 11c1 6 6 8 10 11a86 86 0 0 0 29 8c21 3 41 4 61-3 8-3 15-7 19-14 4-9 4-20 3-29h-14Z" fill="#000000"/><path d="M508 220a271 271 0 0 1 97 24c14 7 29 14 42 23 8 5 16 11 22 18l22 25c-9 4-18 3-27 2-17-2-34-4-51-3l-8-1-7-5-12-8c0 4-1 7-3 11-2 2-4 3-7 3-4-1-7-3-11-3a470 470 0 0 0-155 3h-11l-18-6c1 9 4 18 3 26-1 4-1 8-3 11-7 14-15 27-21 42-7 17-13 35-17 53 0 2-1 4-3 5l-12 2c5 9 6 20 5 30-1 12-3 26-9 36 7 9 10 21 10 33 1 19 0 37-7 55-2 4-5 9-10 11-1 1-4 1-4-1-2-4-2-9-3-13-2-15-9-29-20-40-8-7-17-14-26-19-6-2-11-4-16-8l-6-8c-12-32-16-67-12-101a285 285 0 0 1 37-113c10-16 22-30 35-43 10-9 20-17 31-23l14-5 32-11 19-2h43c23 0 44-2 67 0Z" fill="#000000"/></g><g transform="translate(10 -60)"></g></g></svg>