<svg xmlns="http://www.w3.org/2000/svg" viewBox="0 0 980 980" fill="none" shape-rendering="auto"><metadata xmlns:rdf="http://www.w3.org/1999/02/22-rdf-syntax-ns#" xmlns:xsi="http://www.w3.org/2001/XMLSchema-instance" xmlns:dc="http://purl.org/dc/elements/1.1/" xmlns:dcterms="http://purl.org/dc/terms/"><rdf:RDF><rdf:Description><dc:title>Lorelei</dc:title><dc:creator>Lisa Wischofsky</dc:creator><dc:source xsi:type="dcterms:URI">https://www.figma.com/community/file/1198749693280469639</dc:source><dcterms:license xsi:type="dcterms:URI">https://creativecommons.org/publicdomain/zero/1.0/</dcterms:license><dc:rights>Remix of „Lorelei” (https://www.figma.com/community/file/1198749693280469639) by „Lisa Wischofsky”, licensed under „CC0 1.0” (https://creativecommons.org/publicdomain/zero/1.0/)</dc:rights></rdf:Description></rdf:RDF></metadata><mask id="viewboxMask"><rect width="980" height="980" rx="0" ry="0" x="0" y="0" fill="#fff" /></mask><g mask="url(#viewboxMask)"><g transform="translate(10 -60)"><path d="M602 226c34 16 66 38 90 67l14 20c1 3 3 4 5 6 17 16 32 33 44 54 12 18 22 39 27 60 5 17 3 36 1 53l-7 25c-2 4-5 10-9 13-2 1-5 2-5-1l2-9a148 148 0 0 0 1-76c-4-17-12-32-20-47l4 12c8 31 3 66-10 96v2l20 33a286 286 0 0 1 40 126c2 20 2 40 0 60a205 205 0 0 1-23 71c-1 2-4 6-7 6l-2-3 3-12v-14c-1-16-5-32-11-47-2 16-6 32-10 48-6 22-14 44-24 66-10 19-22 38-37 53-18 19-41 33-65 39-15 4-31 5-46 4-10 0-19-2-27-7l-57-14-60-9c-23-2-45 0-67-1-8 0-16 0-23-2h-5c-3 0-5-2-8-4-19-10-36-24-51-40-21-22-37-47-51-73a459 459 0 0 1-46-168l-4 33c-2 36 3 72 14 107a632 632 0 0 0 46 107l5 10h-1c-3-1-6-5-9-7a290 290 0 0 1-58-103 355 355 0 0 1-16-157c3-29 9-58 19-85l4-11c1-18 4-35 7-53 9-43 23-86 47-123 9-14 19-28 31-40l15-13a291 291 0 0 1 160-74c54-7 110 1 160 22Z" fill="#000000"/><path d="M528 244c41 6 80 22 113 47 28 21 50 49 65 81 13 28 20 60 19 91-1 15-3 30-8 44h-2l1-21c1-30-2-59-13-87-10-30-28-57-50-79-42-40-98-62-156-63a243 243 0 0 0-196 94 207 207 0 0 0-40 139l2 25c8 0 19 0 25 7l-3 3-17 1c-12 1-24 5-33 13a64 64 0 0 0-17 39c-5 32 12 65 39 83 16 10 36 15 55 9 4-2 9-5 14-3 3 1 4 4 5 7a251 251 0 0 0 90 100c8 7 18 13 28 18 18 8 38 14 57 19l32 8c5 1 9 1 13 3l-4 1c-25 2-48-3-72-10-12-3-23-7-34-12a306 306 0 0 1-84-63l2 28c1 17 0 35-6 52-4 12-11 24-19 34-10 10-22 19-34 26-10 7-21 14-32 18l-16 5 9-9 31-20 22-17a95 95 0 0 0 32-56c2-14 2-28 2-43v-27c-10-14-22-29-27-46-17 8-38 7-55-1-17-7-32-19-43-33-12-17-19-36-21-56s2-40 15-56c9-10 22-18 35-21-4-14-6-29-6-44a234 234 0 0 1 83-173 249 249 0 0 1 199-55Z" fill="#000"/><path d="M653 320c22 22 40 49 50 79 11 28 14 57 13 87l-1 21-5 15-2 13 2 56c0 21 1 42-1 63l-3 47c-2 16-7 31-14 45-11 18-26 33-44 44-13 8-27 12-41 16l-38 11-17 3c0 1 1 2 3 2 8 5 17 5 26 4-3 7-4 14-2 22 3 7 11 11 17 14 12 6 24 7 36 9 7 6 14 14 16 24 2 8 2 16-2 23-5 10-14 18-24 23-13 8-27 14-42 18a468 468 0 0 1-222-1c-17-4-33-9-48-17-12-6-23-13-32-22-5-7-9-14-10-23 11-4 22-11 32-18 12-7 24-16 34-26 8-10 15-22 19-34 6-17 7-35 6-52l-2-28 22 23c19 15 40 30 62 40 11 5 22 9 34 12 24 7 47 12 72 10l4-1c-4-2-8-2-13-3l-32-8c-19-5-39-11-57-19l-29-17c-11-9-23-17-33-27a251 251 0 0 1-56-74c-1-3-2-6-5-7-5-2-10 1-14 3-19 6-39 1-55-9a88 88 0 0 1-39-83c1-14 7-28 17-39 9-8 21-12 33-13l17-1 3-3c-6-7-17-7-25-7l-2-25a207 207 0 0 1 40-139 243 243 0 0 1 196-94c58 1 114 23 156 63Z" fill="#ffffff"/><path d="M710 522c3 0 3 4 4 6 3 11 4 23 5 34l2 21c1 22 2 43 1 65-1 21-1 44-5 65a136 136 0 0 1-80 99c-15 7-31 11-48 13v15c1 3 3 4 5 6 12 6 23 8 36 11 12 3 24 5 36 11-3 3-7 4-11 4-7 1-15-1-23-1-12-2-24-3-36-9-6-3-14-7-17-14-2-8-1-15 2-22-9 1-18 1-26-4-2 0-3-1-3-2l17-3 38-11c14-4 28-8 41-16 18-11 33-26 44-44 7-14 12-29 14-45l3-47c2-21 1-42 1-63l-2-56 2-13ZM252 549c8 0 17 1 23 7 5 4 10 9 12 15 1 3 0 6-2 8l-13 8c-7 6-7 19 0 25 6 5 14 8 21 11 2 0 5 1 6 3-1 2-3 3-5 3-10 0-20-3-28-9-5-3-8-8-9-13-2-8-2-17 4-24 4-6 11-9 18-12-4-5-7-11-14-13-7-3-15-3-22-5l9-4Z" fill="#000"/><path d="M455 468c14 0 27 5 38 13 15 10 26 25 30 43v14c-1 1-2 2-4 1-3-3-5-8-7-12-8-14-18-28-32-36-10-6-22-8-33-6 7 12 11 26 11 40 0 9-4 16-8 24-2 2-5 1-7 1-7 0-13-2-20-4-3-2-8-4-10-8l-1-14 4-19-6 8c-3 4-10 4-13 0-3-3-3-8-1-12 6-8 13-16 22-22 11-8 24-11 37-11ZM684 488c2 1 3 3 0 4l-15 8c5 0 10-1 15 2 3 1 6 5 6 9-4 4-9 7-15 7-15 0-30 3-44 10-3 1-8 2-11-1-4-3-4-9-2-12 2-4 5-6 8-8l45-17c4-1 9-3 13-2Z" fill="#000000"/><path d="M533 358c6 2 9 8 10 14 0 8-3 16-7 22-3 3-7 4-10 1-4-3-2-10-2-15l-13 10c-6 4-13 7-20 9-9 4-19 5-30 8l-25 8c-8 3-15 8-22 12l-25 17c-5 3-8 7-11 12-2-4-1-8 1-11a401 401 0 0 1 35-29c16-13 36-21 55-28l28-11c8-4 14-11 21-16 5-2 10-4 15-3ZM626 376l6 7c17 7 33 7 49 16 4 2 7 6 9 10s1 8-2 12l-16-6c-12-6-24-7-36-11-7-3-14-4-19-10-4 8-4 17-8 26-1 1-1 4-4 3l-1-8 2-11c1-8 4-16 7-23 2-6 8-8 13-5Z" fill="#000000"/><path d="M603 613v1c-4 8-11 15-20 18-3 1-7 1-9-1v-4c7-5 16-9 24-12l5-2Z" fill="#000000"/><path d="M478 678c3-1 5 0 5 2 0 3-3 6-6 7-3-3-2-7 1-9ZM503 690l36 7 30 2c7 1 13 0 19 2-1 2-3 3-6 4a158 158 0 0 1-74-6c-3-1-7-3-8-6-1-2 1-4 3-3Z" fill="#000000"/><path d="M559 212c40 10 78 29 108 56 14 11 26 25 36 40l5 8c10 9 19 19 27 29a236 236 0 0 1 49 97c1 8 2 15 1 23-1 15-3 30-9 44-2 5-5 12-10 15h-4l2-9a154 154 0 0 0 1-76c-4-17-11-33-20-48l4 12c5 21 5 45-1 67-4 20-13 38-24 56-5 5-9 12-15 16-3 2-6 1-9 2-2-2-1-4-1-6l-1-20c-2-35-14-69-31-100a318 318 0 0 0-77-88l-9-7a244 244 0 0 1 17 68c1 17 2 34 1 51-2 30-6 59-17 87-6 15-13 28-21 42-11 18-26 35-43 47-3 1-7 4-10 3l1-3 17-19c22-26 34-60 42-93 6-25 7-50 4-75l-1 6a376 376 0 0 1-44 99 227 227 0 0 1-77 71l-14 5c-2 1-6 1-7-2 1-6 5-12 7-18a267 267 0 0 0 19-45c-13 16-28 31-46 41-16 9-35 14-53 14-5 0-11-1-14-5-3-2-1-6 0-10l10-32c5-16 9-32 12-49l-16 18-19 17-1 23a756 756 0 0 0 32 212c11 30 26 57 41 85l6 12c1 2-1 4-3 3a335 335 0 0 1-61-55 433 433 0 0 1-97-326l-2-4a181 181 0 0 1-13-130c10-32 27-60 50-83 27-27 61-47 97-60 58-20 122-22 181-6Z" fill="#000000"/></g><g transform="translate(10 -60)"></g></g></svg>