<svg xmlns="http://www.w3.org/2000/svg" viewBox="0 0 980 980" fill="none" shape-rendering="auto"><metadata xmlns:rdf="http://www.w3.org/1999/02/22-rdf-syntax-ns#" xmlns:xsi="http://www.w3.org/2001/XMLSchema-instance" xmlns:dc="http://purl.org/dc/elements/1.1/" xmlns:dcterms="http://purl.org/dc/terms/"><rdf:RDF><rdf:Description><dc:title>Lorelei</dc:title><dc:creator>Lisa Wischofsky</dc:creator><dc:source xsi:type="dcterms:URI">https://www.figma.com/community/file/1198749693280469639</dc:source><dcterms:license xsi:type="dcterms:URI">https://creativecommons.org/publicdomain/zero/1.0/</dcterms:license><dc:rights>Remix of „Lorelei” (https://www.figma.com/community/file/1198749693280469639) by „Lisa Wischofsky”, licensed under „CC0 1.0” (https://creativecommons.org/publicdomain/zero/1.0/)</dc:rights></rdf:Description></rdf:RDF></metadata><mask id="viewboxMask"><rect width="980" height="980" rx="0" ry="0" x="0" y="0" fill="#fff" /></mask><g mask="url(#viewboxMask)"><g transform="translate(10 -60)"><path fill-rule="evenodd" clip-rule="evenodd" d="M432 130a43 43 0 0 0-30-7c-2 1-5 1-6 3l5 1 11 3c7 3 13 9 17 16 9 10 14 23 17 36l-10-10a125 125 0 0 0-83-27l-14 2-10 2c-11 2-21 8-30 14-26 20-50 44-67 73-7 13-13 26-14 41-1 10 1 19 5 28 4 10 12 17 21 21a210 210 0 0 0-36 109 341 341 0 0 0 67 223c10 13 22 26 36 36-14 6-27 16-34 29-2 6-3 11-1 17l1 2h1l3-3 8-8c11-8 25-11 38-11 7-1 13 0 20 1h2l9 2 7 2 7 1h5c5 1 11 1 17-1l1-7c-7-26-22-47-40-67l-11-11c-10-10-20-20-29-32-6-7-11-16-16-25l-3-6c7 4 14 7 21 8 6 1 14 1 19-3 2-2 2-6 2-9v-1a2119 2119 0 0 0 0-47 884 884 0 0 1 5-47 359 359 0 0 0 42-66c-1 15-6 31-13 45l-2 2-3 10c3 2 6-1 8-3 9-9 16-21 20-33l2-7 2-7v21l-4 24-1 2v5c5 2 9 4 14 3 11-1 21-6 30-11a224 224 0 0 0 73-73 415 415 0 0 1-7 75l-2 11c0 2 2 3 3 3h2c3 2 6 1 9-1h1c6-2 12-6 17-10 15-9 27-22 35-37 0 16-1 31-4 47 0 2 0 4 2 4 5 0 9-2 13-5 15-14 25-33 31-52 7-25 7-50 3-75 8 9 14 21 19 32a203 203 0 0 1 14 81c0 1 0 4 2 4 8 0 13-3 19-7l1-2 20-17 1 6 5 21c2 4 3 8 7 11 2 1 5 0 7-1 10-7 18-18 23-30 7-17 8-36 4-53-2-11-6-23-12-32l-1-3-2-6c-1-13-3-27-8-39-10-28-30-51-54-67a179 179 0 0 0-114-29 203 203 0 0 1 57-33l17-8h1c1-1 4-2 4-4-7-8-19-9-28-10-25-2-51 1-74 11-21 10-41 25-57 43 4-17 3-35-3-52-6-15-16-28-30-36ZM253 250c4-18 11-35 21-50l-13 15c-9 12-16 25-22 38-4 10-6 22-4 33 1 7 3 14 8 19l12 7 8-10c-5-6-9-12-11-20-3-11-2-21 1-32Z" fill="#000000"/><path d="M528 244c41 6 80 22 113 47 28 21 50 49 65 81 13 28 20 60 19 91-1 15-3 30-8 44h-2l1-21c1-30-2-59-13-87-10-30-28-57-50-79-42-40-98-62-156-63a243 243 0 0 0-196 94 207 207 0 0 0-40 139l2 25c8 0 19 0 25 7l-3 3-17 1c-12 1-24 5-33 13a64 64 0 0 0-17 39c-5 32 12 65 39 83 16 10 36 15 55 9 4-2 9-5 14-3 3 1 4 4 5 7a251 251 0 0 0 90 100c8 7 18 13 28 18 18 8 38 14 57 19l32 8c5 1 9 1 13 3l-4 1c-25 2-48-3-72-10-12-3-23-7-34-12a306 306 0 0 1-84-63l2 28c1 17 0 35-6 52-4 12-11 24-19 34-10 10-22 19-34 26-10 7-21 14-32 18l-16 5 9-9 31-20 22-17a95 95 0 0 0 32-56c2-14 2-28 2-43v-27c-10-14-22-29-27-46-17 8-38 7-55-1-17-7-32-19-43-33-12-17-19-36-21-56s2-40 15-56c9-10 22-18 35-21-4-14-6-29-6-44a234 234 0 0 1 83-173 249 249 0 0 1 199-55Z" fill="#000"/><path d="M653 320c22 22 40 49 50 79 11 28 14 57 13 87l-1 21-5 15-2 13 2 56c0 21 1 42-1 63l-3 47c-2 16-7 31-14 45-11 18-26 33-44 44-13 8-27 12-41 16l-38 11-17 3c0 1 1 2 3 2 8 5 17 5 26 4-3 7-4 14-2 22 3 7 11 11 17 14 12 6 24 7 36 9 7 6 14 14 16 24 2 8 2 16-2 23-5 10-14 18-24 23-13 8-27 14-42 18a468 468 0 0 1-222-1c-17-4-33-9-48-17-12-6-23-13-32-22-5-7-9-14-10-23 11-4 22-11 32-18 12-7 24-16 34-26 8-10 15-22 19-34 6-17 7-35 6-52l-2-28 22 23c19 15 40 30 62 40 11 5 22 9 34 12 24 7 47 12 72 10l4-1c-4-2-8-2-13-3l-32-8c-19-5-39-11-57-19l-29-17c-11-9-23-17-33-27a251 251 0 0 1-56-74c-1-3-2-6-5-7-5-2-10 1-14 3-19 6-39 1-55-9a88 88 0 0 1-39-83c1-14 7-28 17-39 9-8 21-12 33-13l17-1 3-3c-6-7-17-7-25-7l-2-25a207 207 0 0 1 40-139 243 243 0 0 1 196-94c58 1 114 23 156 63Z" fill="#ffffff"/><path d="M710 522c3 0 3 4 4 6 3 11 4 23 5 34l2 21c1 22 2 43 1 65-1 21-1 44-5 65a136 136 0 0 1-80 99c-15 7-31 11-48 13v15c1 3 3 4 5 6 12 6 23 8 36 11 12 3 24 5 36 11-3 3-7 4-11 4-7 1-15-1-23-1-12-2-24-3-36-9-6-3-14-7-17-14-2-8-1-15 2-22-9 1-18 1-26-4-2 0-3-1-3-2l17-3 38-11c14-4 28-8 41-16 18-11 33-26 44-44 7-14 12-29 14-45l3-47c2-21 1-42 1-63l-2-56 2-13ZM252 549c8 0 17 1 23 7 5 4 10 9 12 15 1 3 0 6-2 8l-13 8c-7 6-7 19 0 25 6 5 14 8 21 11 2 0 5 1 6 3-1 2-3 3-5 3-10 0-20-3-28-9-5-3-8-8-9-13-2-8-2-17 4-24 4-6 11-9 18-12-4-5-7-11-14-13-7-3-15-3-22-5l9-4Z" fill="#000"/><g fill="#000000"><path d="M669 473c8-1 16 1 22 6 3 3 6 7 6 12s-5 9-10 8c-6-1-7-6-11-9-3-2-6-3-10-3 7 10 7 23 3 34-2 9-8 16-16 19-7 3-14 0-18-5-5-5-7-13-7-20l-7 15c-1 2 0 4-3 5-2-6-1-11 1-17 6-16 17-30 32-38 5-4 11-6 18-7ZM457 484c26 1 51 17 63 40 2 2 4 6 3 9 0 2-1 2-3 1-3-2-4-5-6-8l-12-13c2 11 0 23-7 32-6 7-16 11-25 10-13-2-25-13-27-26-3-10 0-21 6-30-14 3-27 9-39 18-2 1-2 4-1 6l8 11c11 10 24 17 37 21l11 4c-5 3-12 3-18 2-13-3-25-10-34-19-6-5-11-12-14-19-1-4-4-6-4-10 0-5 5-9 9-12 15-12 34-18 53-17Z"/><path d="M670 530c2 4 0 9-2 12-5 5-12 9-19 10-8 1-17 2-25-2-1-1-4-3-2-5h7c11 1 22-3 31-8l10-7Z"/></g><path d="m688 421 1 2-13 14c-7 6-14 10-22 14l-26 19-13 6-9 1-10 20-1 1-1-1c-2-5 0-13 1-19 2-6 2-12 8-16 3-3 7-3 10-5l31-20c8-6 16-11 25-13l19-3ZM371 430c9 0 19 0 28 2 9 1 17 4 26 6 5 2 10 1 15 2 8 0 15-1 23 2 8 2 16 3 23 6 12 3 24 5 35 11 0-2 0-4 2-6 2-1 5 0 6 2 5 7 8 17 11 25 1 4-2 9-6 9-5 1-8-4-12-6-5-2-7-7-12-9l-30-9-19-5-15-3-15-4-24-9-30-9-6-5Z" fill="#000000"/><path d="M607 606c0 3-2 6-4 9-4 6-11 10-18 12-5 1-9-2-13 0-4 0-8 1-12-1-2-1-2-4 0-6 3-4 8-7 12-7 4-1 7-1 10 2l1 7c5-2 7-5 11-8l13-8Z" fill="#000000"/><path d="M599 665c5 0 10 3 13 7 3 6 4 13 5 20 1 11-1 23-6 33-5 9-13 13-22 15-11 3-23 3-34 3-4 0-9-1-13-3 7-3 13-3 20-4l21-3c6-1 14-4 18-9s6-12 7-19l-4 6c-4 3-9 3-14 4l-26 4c-7 1-15 3-23 0l-11 23c-3 1-3-2-3-4 0-7 3-14 6-20 7-17 21-32 36-42 9-6 19-11 30-11Z" fill="#000000"/><path d="M593 164c7 0 15 1 22 4l9 5c-1 4-4 4-6 6l-33 14c-14 7-28 16-40 26a169 169 0 0 1 139 50 123 123 0 0 1 29 130c-9 26-28 50-52 65-4 3-8 3-13 3l-1-2c2-15 0-29-3-44-4-26-14-50-30-71 4 21 4 43-1 64-4 20-13 42-28 57-4 4-9 9-14 10-2 0-6 1-6-1l2-16c2-11 2-22 2-34a99 99 0 0 1-57 50l-9-2c-1-4 0-8 1-13a309 309 0 0 0 7-75c-10 20-26 37-43 52-11 9-23 18-36 24-8 4-16 8-25 8-5 0-9-1-13-3a168 168 0 0 0 5-55c-1 7-3 15-6 22-3 9-8 17-14 25l-8 6c-2 0-3 1-4-1 1-5 4-9 6-13 7-14 11-29 12-44a273 273 0 0 1-42 67c-2 1-2 3-2 4l-3 42v46c0 4 1 9-1 12-2 2-5 2-8 3-9 2-17-1-25-4s-15-8-21-15c-6-6-11-13-15-21l-7-6a138 138 0 0 1-51-111c0-27 8-53 19-77a254 254 0 0 1 181-131c17-2 36-3 53 1l16-17a151 151 0 0 1 114-40Z" fill="#000000"/></g><g transform="translate(10 -60)"></g></g></svg>